<mxfile host="app.diagrams.net" modified="2023-04-19T05:35:28.781Z" agent="Mozilla/5.0 (X11; CrOS x86_64 14541.0.0) AppleWebKit/537.36 (KHTML, like Gecko) Chrome/114.0.0.0 Safari/537.36" etag="pavxwosViW2u7H9ktddX" version="21.1.9" type="github">
  <diagram name="第 1 页" id="9C0qv6fGwKh0Hl7pO2y9">
    <mxGraphModel dx="754" dy="865" grid="0" gridSize="10" guides="1" tooltips="1" connect="1" arrows="1" fold="1" page="0" pageScale="1" pageWidth="827" pageHeight="1169" math="0" shadow="0">
      <root>
        <mxCell id="0" />
        <mxCell id="1" parent="0" />
        <mxCell id="-Qf9ONzBQGlR0rr7MEFH-8" value="" style="shape=link;html=1;rounded=0;fontSize=12;startSize=8;endSize=8;curved=1;" edge="1" parent="1">
          <mxGeometry width="100" relative="1" as="geometry">
            <mxPoint x="-342" y="-194" as="sourcePoint" />
            <mxPoint x="7" y="-192" as="targetPoint" />
          </mxGeometry>
        </mxCell>
        <mxCell id="-Qf9ONzBQGlR0rr7MEFH-9" value="" style="shape=link;html=1;rounded=0;fontSize=12;startSize=8;endSize=8;curved=1;" edge="1" parent="1">
          <mxGeometry width="100" relative="1" as="geometry">
            <mxPoint x="-181" y="-375" as="sourcePoint" />
            <mxPoint x="-166" y="-6" as="targetPoint" />
          </mxGeometry>
        </mxCell>
        <mxCell id="-Qf9ONzBQGlR0rr7MEFH-11" value="" style="shape=stencil(fZbdcgIhDIWfZm8zQAg/17Z9j85U606tdqz9e/tmZ0c0uJ47xP0I5JwEBl59bp8/1kNwn6fj4W39M76ctgM/DCGM++36OJ50NPDjwKvN4bh+PR6+9i/z74/n6ctp9H74nlb4nbmSKZeJCu5vngmZ6jzzNAO7cX8FVKEsBuBKrgKg9oAE8gkCbLeUhEoEQKSUDZDLeWYRKIl8MEDRmHwfyBrBG6Amyu4+kDxxMoB3jhwgYu7TVAsVkFcWCs4CTBEoF4RctKeOxHIf8IXYpikHikAIf+MNUW94AGSSaoAoFIE3AlOyeWU+p2E5S9yfQZcQILVuQOwZdJNoS9Ls3wA5u2XZTIHECqeJ9kDpSaauRiNVcAY1QhdBzeLBli5WazpkSsBLV25uRaqWRyFawTQzRRIQYirJzq5atkBqLfouwqUxLBepthWb10vrWZY6UOAeyKCCtDV625mm9gmUC4Wc3VLJMMIE1BsA2FW9JraVlQB7n3c9oMKhCLEvIM1zBPZ25/umNQ1tVEC2G+fFCC8g398O2hNQuQlVu752DBfA+q0ptnqO5JFmeuIuo9DY7KjY71UxdJV4EntifPWorW++R/dC4t7V3DlIB5cHx2bc7eb3yvX//QNFp+bHDT/+Aw==);lineShape=1;fontSize=16;" vertex="1" parent="1">
          <mxGeometry x="-333.2502642551805" y="-211.2689136156996" width="4.672539772115329" height="4.665236216357698" as="geometry" />
        </mxCell>
        <mxCell id="-Qf9ONzBQGlR0rr7MEFH-12" value="" style="shape=stencil(lVpLch03DDyNtiyS4HftOPdwleVIFcVyyXI+tw8YhXzDxkyrvHMU9BsOATQawNzJh+8Pn77d30X//fXl+ff7vx4/vz7cyS93MT5+fbh/eXzVf93Jxzv58OX55f63l+cfXz+//fe3T8Ny/OuP5z/HL/z9hvOulgGK/p+3P/Timv/vL7++2T89fj3YB5ezsQ/X9tFl8/v/P/HUXlwyv1/6tX1ykox9urbPTqKxJ+cpLnlz/nxtX102v9/I7zdXjX2v1/bddbif6jy5/xBcsA8gFxqik2AALCJkOuh4RexIZz5I7AnFxYqA0AigmqjIrrGXbsZt2WUSRqGbvMkuCMmD4DwEUnKFOFozJxYEBAZQP4Dj9C/sSMnEkjhPrlWTQeAdNL1Z8ldXABBodGs6tIqARPwg3gXwtHedAdbvHQCJJLREV9sGaJ2+g6ibPAISCT7JyHkK8JEANL/2jGtt0uw5oLmQERCI46TP6F+ASqM1rVs/ACIJvqQ0IzuAF5IkmHEKEFYZsot7PrTsOgnvVOYrHgCZARpyqwIC8UPqSDMtucqqlZ+0dQAIuaWsrAF+kJlS5wBxuSOAkXFO5kjRdXakgimqACHXmpW9wdOBhkZuSDMKYH7ImsEQfH4+81wFBCd7AtVOg69E1wCgwcIAad7JAmiWE8eVjH6omT+hzhMvgHqa+KE0vKUaKJFVP//3BJTuInmC/l7fX7oUmqLjxPuR9N4KocqakCrVM/RIZUbOBOROBWtVxbcHn8ZvJNGqgdD2fNCUysTTGpt+jyXNck/8MKJ/f4ISTyUvrQmJgMqPtITCAmgRIy+tANAayudCHKc8VwDAg0+pN+6eFu44BbQ9lrRMRsJ8o97sRxLem7Ql/RcgU92qNROfILQ+KKDtBUXlihA1o3UfVKUKIs+eoNy6e1pbEMZLql3CXnZV1CXmh44tospGJkNVsPndcdrVsZ5PARmOxKV0N2Jd1XhhRwqTSRcguEjCe+jg3dOBX6sqbWA+7VmERGtfVXkBClUCKv6h7GqjlomEU0Dd9VJINKe1gQGq1GaTUeXoqeCW/MzyK0CFwj7nFef2BTVipcp7DAv2fHsn8goWuDWvOLev6OVIy1vXWrL//sqNc/s++edgzxzQMa49FVZqD+MMT9s3te8e7BvzV5+zixUQPOJO7Bu3h/vkakHtYfYRaZs07jOBPetWh792ey287P6NthAez81w7yyKV/aC8ZkZCTWMN1Uu7H5MRxVoBzbsgbOoMlJ7EAme52/DyvEO/zQcFnj+vh11lJ+V58pejD07T0cV5acDL+Mf7Ss/T4cSQPkheI+VNcwTXj4AA46N2bqZy0VeAPoscYcE4AQXTYLxBP5Ze0gA4edpOPTjI4u+JO7qh+YFXxUkIPT2XgGDhF+MelUgYZ8QwnyjqwoPDBeE9gUKgBQLfLTbTecR+Dx7zGWhyDReVQUvVcVfYjQtc5a2otTza41zSXEQsNRvEUfsI/BY5gcUfxp5tFQGpF4NPdbbqGpvIML5CKV7U5w672I7TpvFU4k8Brl7tmm7xeaozYxQtKFjcyMFJMj/RPdNowPcw1sKpeDRY8ITKl0TtOWmQ2NNX7pMil6i1/MnZHzpMR0m+TCGAzvLpzR582r8ANGaCu/145w4LkCjQ8sxooQxkKdE1lZlPUx1mBasRovnPLuFq0ETiMfcqFqoZq9QPJWzNeN2tAid+tc0q98C5Dm7PQfEmcEL0KhCqmEK5NXRecp8xVyrPpM5rlRsrGviK2SzQ9aLZiunknBuVPm6Rm8ddrYaLEzXlmCWWp5uhYvh1saVvIYaDDgaD+9cMac1aVlo5IJkrLQQyLXmjLx0GzKeAwRJoPElr2YwbvLyXK+cAwKKEyVPJh3GIDcggJFAarizHVNJ4gclRmgBxiaPrf4MCSiA6aUkroOnF1OdA6LZRja+mAvYFo6NKt934nJRaYEteRs2Yq1TIa1FFoaWQ67wrTDUhyGI2JI34fyuBzoLFkEyVgCbvkgwH6vwabPKqWQA7Akq2ALs/4Uu5qKScUQAU8YqOgv4IVEyjmavcOsozgFm1TGmkkSc3GZ8C1D4Swfj6TJT6hzgcSavfRob7WoDAxVIG0f20sGw9xidkATSngo/DGt09Te6NgB0OosJYr4l6XSIH6L51qvTzfb4tiobAOtQsBs4zEPORaKJjM41Iq54x0CHCQfzYVWnUibjNKOvLxrOiRhVQ+eNrqAWuw28zgMb1eGwZ59t4QJixBCJUo/VdtgTf3ksVGOeQ+5TS4A5vydk5HEOcFsAXNjjx3+NKh5vKkKjRcpM8zoXqmvbcOAhNo83m+/BW8S/9muwSjnCm2/s+OrRo+QcxEvPnxva8/f9ua9x37fXf9w+/f3y+PT09uXw8f/jp8L6p7fPjOXjvw==);lineShape=1;fontSize=16;" vertex="1" parent="1">
          <mxGeometry x="-332.7568915895611" y="-390.37438452110854" width="300.8930643513027" height="184.75950228587118" as="geometry" />
        </mxCell>
      </root>
    </mxGraphModel>
  </diagram>
</mxfile>
